<svg xmlns="http://www.w3.org/2000/svg" xmlns:xlink="http://www.w3.org/1999/xlink" width="500" zoomAndPan="magnify" viewBox="0 0 375 374.999991" height="500" preserveAspectRatio="xMidYMid meet" version="1.0"><defs><g/><clipPath id="id1"><path d="M 131 74.042969 L 244.949219 74.042969 L 244.949219 250.292969 L 131 250.292969 Z M 131 74.042969 " clip-rule="nonzero"/></clipPath><clipPath id="id2"><path d="M 191.804688 275 L 218.804688 275 L 218.804688 300 L 191.804688 300 Z M 191.804688 275 " clip-rule="nonzero"/></clipPath></defs><g clip-path="url(#id1)"><path fill="#c89a40" d="M 168.292969 175.167969 C 166.761719 173.230469 165.117188 171.5 163.414062 169.972656 C 161.121094 167.917969 158.738281 166.246094 156.417969 164.984375 C 157.914062 161.492188 159.648438 158.148438 161.089844 155.507812 C 161.414062 154.917969 162 154.566406 162.675781 154.566406 C 163.351562 154.566406 163.941406 154.890625 164.292969 155.476562 C 164.382812 155.625 164.46875 155.769531 164.558594 155.917969 C 166.085938 158.382812 167.96875 160.613281 169.4375 161.902344 L 169.820312 162.226562 L 170.320312 162.226562 C 171.613281 162.226562 173.023438 162.019531 174.40625 161.726562 C 171.261719 165.6875 169.410156 170.675781 168.292969 175.195312 Z M 177.992188 158.117188 C 177.523438 158.234375 177.402344 158.265625 177.285156 158.292969 C 175.347656 158.820312 172.878906 159.46875 170.789062 159.585938 C 169.554688 158.410156 168.027344 156.589844 166.792969 154.539062 C 166 153.21875 165.292969 151.835938 164.851562 150.546875 C 168.261719 150.515625 170.613281 152.425781 173.054688 154.390625 C 174.640625 155.683594 176.257812 156.972656 178.226562 157.941406 C 178.167969 158 178.078125 158.058594 178.019531 158.117188 Z M 145.453125 133.730469 C 145.453125 133.730469 147.480469 132.527344 149.183594 131.734375 C 149.566406 132.5 150.007812 133.292969 150.539062 134.054688 C 145.304688 136.195312 142.277344 139.042969 140.132812 141.597656 C 140.660156 138.542969 141.984375 136.402344 143.394531 134.113281 L 145.277344 131.03125 L 142.277344 131.707031 C 141.984375 131.765625 141.660156 131.851562 141.277344 132 C 142.1875 130.472656 143.101562 129.066406 144.042969 127.804688 C 145.128906 126.335938 146.246094 125.046875 147.390625 123.902344 C 147.390625 124.253906 147.421875 124.605469 147.449219 124.957031 C 147.539062 126.425781 147.832031 128.007812 148.363281 129.625 C 146.773438 131.121094 146.363281 131.972656 145.453125 133.730469 Z M 159.621094 127.714844 C 158.414062 127.394531 156.5625 126.953125 155.535156 126.894531 C 157.5625 125.867188 157.5625 125.867188 157.5625 125.867188 C 157.5625 125.867188 154.09375 122.933594 152.625 123.050781 C 153.035156 124.046875 153.183594 124.988281 152.652344 125.691406 C 151.417969 127.304688 152.332031 130.589844 152.859375 132.792969 C 150.949219 130.09375 150.242188 127.277344 150.066406 124.78125 C 149.890625 122.433594 150.214844 120.351562 150.507812 118.910156 C 156.179688 118.148438 162.648438 122.582031 165.058594 124.429688 C 163.382812 125.339844 161.558594 126.425781 159.648438 127.6875 Z M 180.078125 235.53125 L 176.433594 239.171875 L 180.078125 242.808594 L 183.722656 239.171875 Z M 187.574219 235.089844 C 187.78125 235.089844 187.984375 235.03125 188.164062 234.945312 C 188.398438 234.796875 188.574219 234.59375 188.691406 234.328125 C 189.074219 233.332031 189.515625 232.449219 190.042969 231.597656 C 190.574219 230.777344 191.132812 230.015625 191.75 229.191406 C 192.335938 228.429688 192.867188 227.695312 193.335938 226.992188 C 193.804688 226.289062 194.21875 225.582031 194.570312 224.878906 L 195.097656 223.824219 L 195.6875 224.851562 C 196.011719 225.40625 196.363281 225.90625 196.804688 226.316406 C 197.214844 226.726562 197.714844 227.050781 198.304688 227.285156 L 200.097656 227.929688 C 200.300781 227.988281 200.480469 228.019531 200.683594 227.988281 C 200.859375 227.960938 201.035156 227.902344 201.214844 227.753906 C 201.390625 227.636719 201.507812 227.492188 201.59375 227.316406 C 201.683594 227.140625 201.714844 226.960938 201.714844 226.757812 L 201.625 224.851562 C 201.476562 221.300781 203.449219 218.277344 205.269531 215.488281 L 207.003906 212.847656 L 206.503906 215.871094 L 206.445312 216.164062 L 205.769531 219.683594 C 205.710938 219.917969 205.738281 220.183594 205.828125 220.390625 C 205.917969 220.59375 206.0625 220.769531 206.296875 220.917969 C 206.503906 221.0625 206.738281 221.121094 206.976562 221.121094 C 207.210938 221.121094 207.445312 221.035156 207.652344 220.886719 L 210.296875 218.980469 C 213.96875 216.308594 216.820312 213.257812 218.761719 209.796875 C 220.671875 206.421875 221.730469 202.664062 221.878906 198.527344 L 221.90625 197.382812 L 222.878906 198 C 223.523438 198.410156 224.230469 198.789062 224.933594 199.085938 C 225.667969 199.378906 226.433594 199.640625 227.226562 199.816406 L 230.371094 200.523438 C 230.609375 200.582031 230.871094 200.550781 231.078125 200.464844 C 231.285156 200.375 231.488281 200.230469 231.636719 200.023438 C 231.785156 199.816406 231.84375 199.582031 231.84375 199.347656 C 231.84375 199.113281 231.785156 198.878906 231.636719 198.671875 L 229.84375 196.003906 C 229.492188 195.503906 229.195312 194.917969 228.933594 194.300781 C 228.636719 193.625 228.375 192.890625 228.167969 192.246094 C 227.960938 191.542969 227.785156 190.839844 227.640625 190.105469 C 227.519531 189.429688 227.433594 188.726562 227.402344 188.019531 C 227.402344 187.640625 227.402344 187.257812 227.402344 186.90625 C 227.433594 186.523438 227.460938 186.144531 227.492188 185.789062 L 227.757812 183.472656 L 229.460938 187.257812 C 229.550781 187.464844 229.695312 187.640625 229.871094 187.757812 C 230.050781 187.875 230.253906 187.933594 230.492188 187.960938 C 230.726562 187.960938 230.929688 187.902344 231.136719 187.816406 C 231.3125 187.699219 231.488281 187.550781 231.578125 187.347656 L 232.8125 185.058594 C 234.078125 182.710938 235.105469 180.246094 235.78125 177.691406 C 236.457031 175.226562 236.808594 172.671875 236.839844 170.089844 C 236.839844 169.710938 236.839844 169.296875 236.839844 168.859375 C 236.839844 168.476562 236.808594 168.066406 236.78125 167.625 L 236.605469 165.21875 L 239.660156 169.769531 C 239.808594 170.003906 240.042969 170.148438 240.277344 170.238281 C 240.515625 170.324219 240.808594 170.324219 241.074219 170.207031 C 241.335938 170.121094 241.542969 169.945312 241.691406 169.710938 C 241.835938 169.503906 241.894531 169.238281 241.867188 168.945312 L 241.308594 163.753906 C 241.074219 161.550781 240.660156 159.410156 240.074219 157.324219 C 239.484375 155.183594 238.722656 153.101562 237.78125 151.046875 L 237.515625 150.457031 L 238.074219 150.195312 C 238.28125 150.105469 238.425781 149.960938 238.542969 149.785156 C 238.660156 149.609375 238.722656 149.402344 238.722656 149.167969 L 238.867188 145.675781 C 238.898438 145.089844 238.898438 144.53125 238.898438 143.972656 C 238.898438 143.414062 238.839844 142.859375 238.808594 142.328125 L 238.632812 140.628906 L 240.808594 142.625 C 241.011719 142.828125 241.277344 142.917969 241.542969 142.945312 C 241.808594 142.945312 242.101562 142.886719 242.308594 142.710938 C 242.542969 142.535156 242.6875 142.300781 242.746094 142.035156 C 242.804688 141.773438 242.777344 141.480469 242.660156 141.242188 L 239.601562 135.023438 C 238.808594 133.378906 237.925781 131.734375 236.988281 130.152344 C 236.046875 128.566406 235.046875 127.039062 233.957031 125.574219 C 233.164062 124.515625 232.3125 123.488281 231.429688 122.492188 C 230.550781 121.523438 229.609375 120.585938 228.609375 119.703125 L 228.433594 119.558594 L 228.402344 119.324219 C 228.34375 119 228.285156 118.648438 228.199219 118.296875 C 228.109375 117.886719 228.050781 117.5625 227.992188 117.269531 L 227.816406 116.476562 C 227.757812 116.242188 227.640625 116.035156 227.492188 115.890625 C 227.34375 115.742188 227.140625 115.625 226.902344 115.566406 L 226.375 115.449219 L 226.257812 115.125 C 226.226562 115.039062 226.167969 114.921875 226.109375 114.832031 C 226.050781 114.746094 225.964844 114.65625 225.875 114.597656 L 222.789062 112.28125 C 221.230469 111.105469 219.613281 109.933594 217.878906 108.933594 C 216.203125 107.964844 214.410156 107.144531 212.53125 106.703125 L 211 106.324219 L 212.675781 105.324219 C 212.914062 105.179688 213.089844 104.972656 213.175781 104.738281 C 213.265625 104.503906 213.292969 104.238281 213.207031 103.976562 C 213.117188 103.710938 212.972656 103.503906 212.765625 103.328125 C 212.558594 103.183594 212.296875 103.09375 212.03125 103.09375 L 207.238281 103.125 C 206.035156 103.125 204.828125 103.152344 203.625 103.183594 C 202.417969 103.210938 201.214844 103.269531 199.980469 103.328125 C 198.804688 103.386719 197.570312 103.445312 196.335938 103.535156 C 195.160156 103.621094 193.953125 103.710938 192.71875 103.828125 L 192.308594 103.859375 C 192.160156 103.859375 192.042969 103.886719 191.953125 103.945312 C 191.835938 104.003906 191.75 104.0625 191.632812 104.152344 L 187.367188 107.761719 L 183.105469 104.152344 C 183.019531 104.0625 182.902344 104.003906 182.78125 103.945312 C 182.664062 103.917969 182.546875 103.886719 182.429688 103.859375 L 182.019531 103.828125 C 180.785156 103.710938 179.578125 103.621094 178.402344 103.535156 C 177.167969 103.445312 175.964844 103.386719 174.757812 103.328125 C 173.523438 103.269531 172.320312 103.210938 171.113281 103.183594 C 169.910156 103.152344 168.703125 103.125 167.496094 103.125 L 162.707031 103.09375 C 162.441406 103.09375 162.175781 103.183594 161.972656 103.328125 C 161.765625 103.476562 161.621094 103.710938 161.53125 103.976562 C 161.441406 104.238281 161.472656 104.503906 161.558594 104.738281 C 161.648438 104.972656 161.824219 105.179688 162.058594 105.324219 L 163.734375 106.324219 L 162.207031 106.703125 C 160.324219 107.171875 158.5625 107.964844 156.855469 108.933594 C 155.152344 109.933594 153.535156 111.078125 151.949219 112.28125 L 148.863281 114.597656 C 148.773438 114.65625 148.6875 114.746094 148.625 114.832031 C 148.566406 114.921875 148.507812 115.007812 148.480469 115.125 L 148.363281 115.449219 L 147.832031 115.566406 C 147.597656 115.625 147.390625 115.742188 147.246094 115.890625 C 147.097656 116.035156 146.980469 116.242188 146.921875 116.476562 L 146.746094 117.269531 C 146.6875 117.5625 146.597656 117.914062 146.539062 118.296875 C 146.480469 118.648438 146.394531 119 146.335938 119.324219 L 146.304688 119.558594 L 146.128906 119.703125 C 145.128906 120.585938 144.1875 121.523438 143.304688 122.492188 C 142.425781 123.460938 141.570312 124.488281 140.777344 125.574219 C 139.691406 127.039062 138.691406 128.566406 137.75 130.152344 C 136.808594 131.734375 135.957031 133.378906 135.136719 135.023438 L 132.078125 141.242188 C 131.960938 141.507812 131.929688 141.800781 131.988281 142.035156 C 132.046875 142.300781 132.195312 142.535156 132.429688 142.710938 C 132.664062 142.886719 132.929688 142.976562 133.195312 142.945312 C 133.460938 142.945312 133.722656 142.828125 133.929688 142.625 L 136.105469 140.628906 L 135.929688 142.328125 C 135.871094 142.886719 135.839844 143.414062 135.839844 143.972656 C 135.839844 144.53125 135.839844 145.089844 135.871094 145.675781 L 136.015625 149.167969 C 136.015625 149.402344 136.105469 149.609375 136.191406 149.785156 C 136.3125 149.960938 136.457031 150.105469 136.664062 150.195312 L 137.222656 150.457031 L 136.957031 151.046875 C 136.046875 153.101562 135.28125 155.183594 134.664062 157.324219 C 134.078125 159.4375 133.664062 161.582031 133.429688 163.753906 L 132.871094 168.945312 C 132.84375 169.210938 132.902344 169.503906 133.046875 169.710938 C 133.195312 169.914062 133.402344 170.089844 133.664062 170.207031 C 133.929688 170.296875 134.195312 170.296875 134.457031 170.238281 C 134.695312 170.148438 134.929688 170.003906 135.074219 169.769531 L 138.132812 165.21875 L 137.957031 167.625 C 137.925781 168.066406 137.898438 168.476562 137.898438 168.859375 C 137.898438 169.296875 137.867188 169.710938 137.898438 170.089844 C 137.925781 172.671875 138.308594 175.226562 138.957031 177.691406 C 139.632812 180.246094 140.660156 182.710938 141.925781 185.058594 L 143.1875 187.347656 C 143.304688 187.550781 143.453125 187.699219 143.628906 187.816406 C 143.804688 187.933594 144.042969 187.960938 144.277344 187.960938 C 144.511719 187.960938 144.71875 187.875 144.894531 187.757812 C 145.070312 187.640625 145.21875 187.464844 145.304688 187.257812 L 147.011719 183.472656 L 147.273438 185.789062 C 147.304688 186.144531 147.363281 186.523438 147.363281 186.90625 C 147.390625 187.289062 147.390625 187.640625 147.363281 188.019531 C 147.332031 188.726562 147.246094 189.429688 147.128906 190.105469 C 147.011719 190.808594 146.832031 191.542969 146.597656 192.246094 C 146.394531 192.921875 146.128906 193.625 145.835938 194.300781 C 145.570312 194.886719 145.277344 195.476562 144.921875 196.003906 L 143.128906 198.671875 C 142.984375 198.878906 142.925781 199.113281 142.925781 199.347656 C 142.925781 199.582031 143.011719 199.816406 143.128906 200.023438 C 143.277344 200.230469 143.453125 200.375 143.6875 200.464844 C 143.894531 200.550781 144.128906 200.582031 144.394531 200.523438 L 147.539062 199.816406 C 148.332031 199.640625 149.097656 199.40625 149.832031 199.085938 C 150.566406 198.789062 151.242188 198.410156 151.890625 198 L 152.859375 197.382812 L 152.890625 198.527344 C 153.035156 202.664062 154.09375 206.421875 156.003906 209.796875 C 157.945312 213.257812 160.796875 216.308594 164.46875 218.980469 L 167.117188 220.886719 C 167.320312 221.035156 167.558594 221.121094 167.792969 221.121094 C 168.027344 221.121094 168.261719 221.0625 168.46875 220.917969 C 168.671875 220.769531 168.851562 220.59375 168.9375 220.390625 C 169.027344 220.183594 169.054688 219.949219 168.996094 219.683594 L 168.320312 216.164062 L 168.261719 215.871094 L 167.761719 212.847656 L 169.496094 215.488281 C 171.320312 218.277344 173.289062 221.269531 173.140625 224.851562 L 173.054688 226.757812 C 173.054688 226.960938 173.082031 227.167969 173.171875 227.316406 C 173.257812 227.492188 173.375 227.636719 173.554688 227.753906 C 173.730469 227.871094 173.90625 227.960938 174.082031 227.988281 C 174.257812 228.019531 174.464844 227.988281 174.671875 227.929688 L 176.464844 227.285156 C 177.050781 227.078125 177.550781 226.726562 177.992188 226.316406 C 178.433594 225.90625 178.785156 225.378906 179.109375 224.851562 L 179.695312 223.824219 L 180.226562 224.878906 C 180.578125 225.613281 180.988281 226.289062 181.460938 226.992188 C 181.929688 227.695312 182.460938 228.429688 183.046875 229.191406 C 183.664062 230.015625 184.253906 230.777344 184.753906 231.597656 C 185.28125 232.421875 185.722656 233.300781 186.105469 234.328125 C 186.191406 234.59375 186.398438 234.828125 186.632812 234.945312 C 186.808594 235.03125 187.015625 235.089844 187.222656 235.089844 Z M 187.574219 106.058594 L 191.011719 103.152344 C 191.21875 102.976562 191.425781 102.859375 191.660156 102.742188 C 191.894531 102.65625 192.128906 102.597656 192.394531 102.566406 L 192.808594 102.535156 C 193.984375 102.449219 195.21875 102.332031 196.453125 102.242188 C 197.65625 102.15625 198.863281 102.097656 200.125 102.039062 C 201.332031 101.980469 202.566406 101.921875 203.800781 101.890625 C 205.003906 101.863281 206.238281 101.832031 207.445312 101.832031 L 212.238281 101.804688 C 212.792969 101.804688 213.324219 101.980469 213.765625 102.300781 C 214.175781 102.625 214.5 103.066406 214.648438 103.621094 C 214.792969 104.179688 214.765625 104.738281 214.558594 105.207031 C 214.46875 105.414062 214.382812 105.589844 214.234375 105.765625 C 215.792969 106.265625 217.261719 106.96875 218.703125 107.789062 C 220.46875 108.816406 222.140625 110.019531 223.730469 111.222656 L 226.816406 113.542969 C 227.023438 113.6875 227.167969 113.863281 227.316406 114.039062 C 227.375 114.128906 227.433594 114.214844 227.492188 114.335938 C 227.933594 114.453125 228.285156 114.65625 228.609375 114.980469 C 228.933594 115.300781 229.167969 115.714844 229.285156 116.210938 L 229.460938 117.003906 C 229.550781 117.414062 229.636719 117.765625 229.695312 118.0625 C 229.753906 118.324219 229.8125 118.617188 229.84375 118.910156 C 230.8125 119.761719 231.726562 120.671875 232.578125 121.640625 C 233.488281 122.640625 234.371094 123.726562 235.164062 124.808594 C 236.28125 126.308594 237.308594 127.890625 238.28125 129.503906 C 239.21875 131.121094 240.101562 132.761719 240.925781 134.464844 L 243.980469 140.6875 C 244.246094 141.214844 244.304688 141.832031 244.160156 142.359375 C 244.042969 142.917969 243.71875 143.414062 243.21875 143.769531 C 242.746094 144.121094 242.160156 144.296875 241.601562 144.265625 C 241.160156 144.238281 240.691406 144.089844 240.308594 143.828125 L 240.308594 143.972656 C 240.308594 144.558594 240.308594 145.175781 240.277344 145.761719 L 240.132812 149.253906 C 240.101562 149.726562 239.984375 150.136719 239.75 150.515625 C 239.632812 150.722656 239.457031 150.898438 239.277344 151.046875 C 240.132812 152.980469 240.835938 154.976562 241.394531 157.003906 C 241.984375 159.175781 242.425781 161.375 242.660156 163.632812 L 243.21875 168.828125 C 243.277344 169.414062 243.160156 169.945312 242.867188 170.414062 C 242.570312 170.882812 242.128906 171.234375 241.601562 171.441406 C 241.074219 171.644531 240.484375 171.644531 239.984375 171.46875 C 239.484375 171.292969 239.015625 170.972656 238.691406 170.5 L 238.25 169.828125 L 238.25 170.089844 C 238.222656 172.789062 237.839844 175.433594 237.132812 178.015625 C 236.429688 180.65625 235.371094 183.238281 234.046875 185.671875 L 232.8125 187.960938 C 232.578125 188.375 232.253906 188.726562 231.871094 188.929688 C 231.488281 189.164062 231.019531 189.253906 230.550781 189.253906 C 230.078125 189.222656 229.609375 189.078125 229.253906 188.84375 C 229.078125 188.726562 228.933594 188.609375 228.816406 188.433594 C 228.84375 188.902344 228.902344 189.398438 228.992188 189.898438 C 229.109375 190.574219 229.285156 191.25 229.460938 191.867188 C 229.636719 192.480469 229.875 193.128906 230.167969 193.773438 C 230.402344 194.300781 230.667969 194.828125 230.988281 195.269531 L 232.78125 197.941406 C 233.078125 198.378906 233.195312 198.847656 233.195312 199.320312 C 233.195312 199.789062 233.046875 200.289062 232.753906 200.699219 C 232.460938 201.109375 232.078125 201.433594 231.605469 201.609375 C 231.167969 201.785156 230.667969 201.8125 230.136719 201.726562 L 226.992188 201.019531 C 226.109375 200.816406 225.257812 200.550781 224.492188 200.230469 C 224.054688 200.050781 223.582031 199.816406 223.171875 199.582031 C 222.878906 203.515625 221.789062 207.09375 219.96875 210.351562 C 217.910156 213.992188 214.941406 217.191406 211.148438 219.949219 L 208.503906 221.855469 C 208.089844 222.148438 207.621094 222.324219 207.121094 222.324219 C 206.621094 222.355469 206.152344 222.207031 205.710938 221.945312 C 205.269531 221.679688 204.945312 221.269531 204.742188 220.828125 C 204.535156 220.390625 204.476562 219.890625 204.59375 219.363281 L 204.683594 218.953125 C 203.683594 220.769531 202.917969 222.679688 203.007812 224.730469 L 203.09375 226.640625 C 203.125 227.050781 203.035156 227.460938 202.859375 227.8125 C 202.683594 228.164062 202.417969 228.488281 202.09375 228.722656 C 201.742188 228.957031 201.359375 229.132812 200.976562 229.191406 C 200.597656 229.25 200.183594 229.191406 199.773438 229.074219 L 197.980469 228.429688 C 197.1875 228.136719 196.539062 227.726562 196.011719 227.199219 C 195.746094 226.933594 195.511719 226.667969 195.277344 226.375 C 195.039062 226.816406 194.746094 227.226562 194.480469 227.667969 C 193.984375 228.402344 193.453125 229.164062 192.835938 229.925781 C 192.25 230.71875 191.691406 231.480469 191.191406 232.246094 C 190.71875 233.007812 190.308594 233.800781 189.957031 234.710938 C 189.75 235.265625 189.339844 235.738281 188.867188 236 C 188.484375 236.207031 188.074219 236.324219 187.632812 236.324219 C 187.191406 236.324219 186.75 236.207031 186.398438 236 C 185.898438 235.707031 185.515625 235.265625 185.3125 234.710938 C 184.957031 233.800781 184.546875 233.007812 184.078125 232.246094 C 183.578125 231.480469 183.046875 230.71875 182.429688 229.925781 C 181.84375 229.132812 181.285156 228.402344 180.785156 227.667969 C 180.492188 227.226562 180.226562 226.816406 179.992188 226.375 C 179.753906 226.667969 179.519531 226.960938 179.253906 227.199219 C 178.699219 227.726562 178.050781 228.164062 177.285156 228.429688 L 175.492188 229.074219 C 175.082031 229.222656 174.699219 229.25 174.289062 229.191406 C 173.90625 229.132812 173.523438 228.988281 173.171875 228.722656 C 172.820312 228.488281 172.554688 228.164062 172.40625 227.8125 C 172.230469 227.460938 172.140625 227.050781 172.171875 226.640625 L 172.261719 224.730469 C 172.347656 222.679688 171.582031 220.769531 170.585938 218.953125 L 170.671875 219.363281 C 170.761719 219.859375 170.703125 220.359375 170.527344 220.828125 C 170.320312 221.269531 169.996094 221.652344 169.554688 221.945312 C 169.113281 222.207031 168.644531 222.355469 168.144531 222.324219 C 167.644531 222.296875 167.175781 222.148438 166.761719 221.855469 L 164.117188 219.949219 C 160.296875 217.191406 157.328125 213.992188 155.300781 210.351562 C 153.449219 207.09375 152.359375 203.515625 152.09375 199.582031 C 151.65625 199.816406 151.214844 200.023438 150.773438 200.230469 C 149.980469 200.550781 149.15625 200.816406 148.273438 201.019531 L 145.128906 201.726562 C 144.628906 201.84375 144.128906 201.785156 143.6875 201.609375 C 143.246094 201.433594 142.835938 201.109375 142.542969 200.699219 C 142.25 200.289062 142.101562 199.789062 142.101562 199.320312 C 142.101562 198.847656 142.25 198.351562 142.511719 197.941406 L 144.304688 195.269531 C 144.601562 194.828125 144.863281 194.300781 145.128906 193.773438 C 145.421875 193.128906 145.65625 192.480469 145.835938 191.867188 C 146.039062 191.21875 146.1875 190.574219 146.304688 189.898438 C 146.394531 189.398438 146.453125 188.929688 146.480469 188.433594 C 146.335938 188.578125 146.1875 188.726562 146.039062 188.84375 C 145.65625 189.105469 145.21875 189.253906 144.746094 189.253906 C 144.277344 189.28125 143.804688 189.164062 143.425781 188.929688 C 143.042969 188.695312 142.6875 188.375 142.484375 187.960938 L 141.21875 185.671875 C 139.898438 183.238281 138.839844 180.683594 138.132812 178.015625 C 137.425781 175.433594 137.046875 172.789062 137.015625 170.089844 L 137.015625 169.828125 L 136.574219 170.5 C 136.25 170.972656 135.78125 171.324219 135.28125 171.46875 C 134.78125 171.644531 134.195312 171.644531 133.664062 171.441406 C 133.105469 171.234375 132.695312 170.882812 132.402344 170.414062 C 132.105469 169.945312 131.988281 169.414062 132.046875 168.828125 L 132.605469 163.632812 C 132.84375 161.375 133.28125 159.175781 133.871094 157.003906 C 134.429688 154.976562 135.136719 152.980469 135.988281 151.046875 C 135.8125 150.898438 135.664062 150.722656 135.515625 150.515625 C 135.28125 150.164062 135.136719 149.726562 135.136719 149.253906 L 134.988281 145.761719 C 134.957031 145.148438 134.957031 144.558594 134.957031 143.972656 L 134.957031 143.828125 C 134.578125 144.089844 134.136719 144.238281 133.664062 144.265625 C 133.105469 144.296875 132.519531 144.121094 132.046875 143.769531 C 131.578125 143.414062 131.253906 142.917969 131.109375 142.359375 C 130.988281 141.800781 131.019531 141.214844 131.285156 140.6875 L 134.339844 134.464844 C 135.164062 132.792969 136.046875 131.121094 136.988281 129.503906 C 137.957031 127.890625 138.984375 126.308594 140.101562 124.808594 C 140.925781 123.726562 141.777344 122.667969 142.6875 121.640625 C 143.542969 120.671875 144.480469 119.761719 145.421875 118.910156 C 145.480469 118.617188 145.539062 118.324219 145.570312 118.0625 C 145.628906 117.765625 145.71875 117.386719 145.804688 117.003906 L 145.980469 116.210938 C 146.097656 115.742188 146.304688 115.300781 146.65625 114.980469 C 146.953125 114.6875 147.332031 114.453125 147.773438 114.335938 C 147.832031 114.246094 147.890625 114.15625 147.949219 114.039062 C 148.097656 113.863281 148.246094 113.6875 148.449219 113.542969 L 151.535156 111.222656 C 153.125 110.019531 154.800781 108.816406 156.5625 107.789062 C 157.972656 106.96875 159.472656 106.265625 161.03125 105.765625 C 160.914062 105.589844 160.796875 105.414062 160.707031 105.207031 C 160.503906 104.707031 160.472656 104.152344 160.621094 103.621094 C 160.765625 103.066406 161.089844 102.625 161.5 102.300781 C 161.914062 101.980469 162.441406 101.804688 163.03125 101.804688 L 167.820312 101.832031 C 169.054688 101.832031 170.261719 101.863281 171.464844 101.890625 C 172.699219 101.921875 173.933594 101.980469 175.140625 102.039062 C 176.375 102.097656 177.609375 102.15625 178.816406 102.242188 C 180.078125 102.332031 181.285156 102.417969 182.460938 102.535156 L 182.871094 102.566406 C 183.136719 102.597656 183.371094 102.65625 183.605469 102.742188 C 183.839844 102.832031 184.046875 102.976562 184.253906 103.152344 L 187.691406 106.058594 Z M 206.855469 175.195312 C 208.386719 173.261719 210.03125 171.527344 211.738281 170.003906 C 214.03125 167.949219 216.410156 166.277344 218.734375 165.015625 C 217.234375 161.523438 215.5 158.175781 214.058594 155.535156 C 213.734375 154.949219 213.148438 154.597656 212.472656 154.597656 C 211.796875 154.597656 211.207031 154.917969 210.855469 155.507812 C 210.765625 155.652344 210.679688 155.800781 210.589844 155.945312 C 209.0625 158.410156 207.179688 160.640625 205.710938 161.933594 L 205.359375 162.253906 L 204.859375 162.253906 C 203.566406 162.253906 202.152344 162.050781 200.773438 161.757812 C 203.917969 165.71875 205.769531 170.707031 206.886719 175.226562 Z M 197.15625 158.148438 C 197.628906 158.265625 197.746094 158.292969 197.863281 158.324219 C 199.800781 158.851562 202.273438 159.496094 204.359375 159.613281 C 205.59375 158.441406 207.121094 156.621094 208.355469 154.566406 C 209.148438 153.246094 209.855469 151.867188 210.296875 150.574219 C 206.886719 150.546875 204.535156 152.453125 202.09375 154.421875 C 200.507812 155.710938 198.890625 157.003906 196.921875 157.972656 C 196.980469 158.03125 197.070312 158.089844 197.128906 158.148438 Z M 229.695312 133.761719 C 229.695312 133.761719 227.667969 132.558594 225.964844 131.765625 C 225.582031 132.527344 225.140625 133.320312 224.613281 134.082031 C 229.84375 136.226562 232.871094 139.074219 235.015625 141.625 C 234.488281 138.574219 233.164062 136.429688 231.753906 134.140625 L 229.871094 131.0625 L 232.871094 131.734375 C 233.164062 131.792969 233.488281 131.882812 233.871094 132.03125 C 232.960938 130.503906 232.046875 129.09375 231.109375 127.832031 C 230.019531 126.367188 228.902344 125.074219 227.757812 123.929688 C 227.757812 124.28125 227.726562 124.632812 227.699219 124.988281 C 227.609375 126.453125 227.316406 128.039062 226.785156 129.652344 C 228.375 131.148438 228.785156 132 229.695312 133.761719 Z M 215.527344 127.746094 C 216.734375 127.421875 218.585938 126.980469 219.613281 126.921875 C 217.585938 125.894531 217.585938 125.894531 217.585938 125.894531 C 217.585938 125.894531 221.054688 122.960938 222.523438 123.078125 C 222.113281 124.078125 221.964844 125.015625 222.496094 125.71875 C 223.730469 127.335938 222.820312 130.621094 222.289062 132.820312 C 224.199219 130.121094 224.90625 127.304688 225.082031 124.808594 C 225.257812 122.460938 224.933594 120.378906 224.640625 118.941406 C 218.96875 118.179688 212.53125 122.609375 210.089844 124.457031 C 211.765625 125.367188 213.589844 126.453125 215.5 127.714844 Z M 187.574219 179.042969 L 191.601562 176.078125 L 187.574219 177.222656 L 183.546875 176.078125 Z M 187.574219 206.800781 L 195.953125 203.722656 C 196.246094 203.222656 197.011719 201.988281 198.863281 198.761719 C 194.953125 194.683594 190.308594 193.097656 187.574219 192.511719 C 184.839844 193.097656 180.167969 194.683594 176.285156 198.761719 C 178.140625 201.988281 178.902344 203.222656 179.195312 203.722656 Z M 187.574219 220.742188 L 188.839844 226.316406 C 189.160156 225.464844 189.425781 224.320312 189.398438 222.914062 C 189.398438 222.914062 189.777344 224 189.925781 225.230469 C 191.394531 223.089844 192.601562 220.566406 192.6875 216.046875 L 192.746094 212.875 L 194.921875 215.195312 C 195.894531 216.222656 196.597656 217.511719 197.15625 218.804688 C 197.570312 216.367188 198.597656 214.871094 198.597656 214.84375 C 198.625 215.636719 198.332031 216.839844 198.804688 219.363281 C 199.65625 217.132812 200.949219 215.164062 202.183594 213.289062 C 203.828125 210.765625 205.417969 208.359375 205.476562 205.832031 L 205.621094 200.289062 L 207.945312 205.335938 C 209.121094 207.886719 209.886719 209.648438 210.238281 211.378906 C 210.265625 211.46875 210.265625 211.585938 210.296875 211.671875 C 211.855469 208.296875 212.441406 205.304688 212.441406 205.277344 C 213.324219 207.035156 213 209.738281 212.324219 212.113281 C 220.113281 203.664062 218.027344 194.152344 217.085938 189.871094 L 215.703125 183.679688 L 219.410156 188.84375 C 220.378906 190.191406 221.261719 191.367188 222.140625 192.363281 C 220.964844 189.019531 221.085938 185.292969 221.085938 185.261719 C 221.671875 186.875 222.378906 189.636719 224.171875 192.042969 C 223.875 190.808594 223.671875 189.488281 223.613281 188.167969 C 223.523438 185.964844 223.90625 184.03125 224.289062 182.09375 C 225.140625 177.75 225.933594 173.554688 219.996094 167.15625 C 217.792969 168.328125 215.527344 169.945312 213.351562 171.882812 C 212.617188 172.527344 211.914062 173.230469 211.207031 173.964844 C 212.617188 176.8125 214.351562 185.613281 214.265625 189.222656 C 212.882812 186.289062 211.03125 183.707031 209.414062 181.800781 C 211.941406 188.753906 214.234375 201.019531 212.238281 203.398438 C 211.0625 195.0625 208.828125 190.574219 207.621094 188.609375 L 204.5625 191.21875 C 204.917969 192.980469 205.359375 196.441406 204.386719 200.023438 C 203.859375 197.324219 203.976562 196.0625 202.449219 192.980469 L 201.566406 193.742188 C 201.773438 202.339844 202.242188 202.871094 198.332031 211.585938 C 198.625 208.710938 198.804688 206.128906 198.890625 203.574219 C 197.863281 205.304688 197.714844 205.480469 197.714844 205.480469 L 197.480469 205.804688 C 196.953125 206.566406 194.777344 211.058594 193.394531 212.171875 C 192.808594 209.089844 191.484375 208.503906 190.75 208.445312 C 190.574219 210.46875 189.457031 213.054688 188.722656 214.136719 C 187.898438 215.339844 187.425781 218.101562 187.425781 218.101562 C 187.425781 218.101562 186.957031 215.339844 186.132812 214.136719 C 185.429688 213.082031 184.28125 210.46875 184.105469 208.445312 C 183.371094 208.535156 182.019531 209.121094 181.460938 212.171875 C 180.078125 211.027344 177.902344 206.566406 177.375 205.804688 L 177.140625 205.480469 C 177.140625 205.480469 176.992188 205.277344 175.964844 203.574219 C 176.050781 206.128906 176.226562 208.710938 176.523438 211.585938 C 172.613281 202.871094 173.113281 202.339844 173.289062 193.742188 L 172.40625 192.980469 C 170.90625 196.03125 170.996094 197.292969 170.46875 200.023438 C 169.527344 196.414062 169.96875 192.980469 170.289062 191.21875 L 167.234375 188.609375 C 166.027344 190.574219 163.824219 195.0625 162.617188 203.398438 C 160.589844 201.019531 162.914062 188.753906 165.441406 181.800781 C 163.824219 183.707031 161.972656 186.289062 160.589844 189.222656 C 160.503906 185.613281 162.238281 176.839844 163.648438 173.964844 C 162.941406 173.230469 162.238281 172.554688 161.5 171.882812 C 159.328125 169.945312 157.0625 168.328125 154.859375 167.15625 C 148.921875 173.554688 149.714844 177.75 150.566406 182.09375 C 150.949219 184 151.300781 185.9375 151.242188 188.167969 C 151.183594 189.488281 150.976562 190.808594 150.683594 192.042969 C 152.476562 189.636719 153.183594 186.875 153.769531 185.261719 C 153.769531 185.292969 153.886719 189.019531 152.710938 192.363281 C 153.59375 191.367188 154.503906 190.191406 155.445312 188.84375 L 159.148438 183.679688 L 157.769531 189.871094 C 156.828125 194.152344 154.742188 203.664062 162.53125 212.113281 C 161.882812 209.738281 161.53125 207.035156 162.414062 205.277344 C 162.414062 205.277344 163 208.269531 164.558594 211.671875 C 164.589844 211.585938 164.589844 211.46875 164.617188 211.378906 C 164.96875 209.648438 165.734375 207.886719 166.910156 205.335938 L 169.230469 200.289062 L 169.378906 205.832031 C 169.4375 208.359375 171.023438 210.765625 172.671875 213.289062 C 173.90625 215.195312 175.199219 217.160156 176.050781 219.363281 C 176.523438 216.839844 176.257812 215.636719 176.257812 214.84375 C 176.257812 214.84375 177.316406 216.367188 177.699219 218.804688 C 178.285156 217.511719 178.960938 216.222656 179.933594 215.195312 L 182.105469 212.875 L 182.164062 216.046875 C 182.253906 220.566406 183.460938 223.089844 184.929688 225.230469 C 185.074219 224 185.457031 222.914062 185.457031 222.914062 C 185.429688 224.320312 185.722656 225.464844 186.015625 226.316406 L 187.28125 220.742188 Z M 187.574219 109.316406 L 192.628906 105.0625 L 193.042969 105.03125 C 195.394531 104.824219 197.804688 104.648438 200.273438 104.53125 C 202.652344 104.414062 205.0625 104.355469 207.503906 104.328125 L 212.296875 104.296875 L 206.976562 107.4375 C 208.710938 107.351562 210.265625 107.378906 211.796875 107.703125 C 214.910156 108.316406 217.878906 109.902344 222.261719 113.21875 L 225.347656 115.539062 L 221.496094 115.539062 C 221.203125 115.539062 220.878906 115.539062 220.527344 115.539062 C 221.023438 115.800781 221.523438 116.066406 221.996094 116.328125 C 223.347656 116.183594 224.730469 116.242188 226.050781 116.535156 L 226.84375 116.710938 L 227.023438 117.503906 C 227.167969 118.179688 227.375 119.089844 227.519531 120.144531 C 229.519531 121.847656 231.371094 123.8125 233.164062 126.25 C 235.074219 128.800781 236.898438 131.824219 238.691406 135.492188 L 241.75 141.714844 L 236.664062 137.019531 C 236.488281 136.84375 236.308594 136.695312 236.132812 136.546875 C 237.25 138.925781 237.984375 141.65625 237.839844 145.617188 L 237.691406 149.109375 L 235.515625 146.378906 C 235.3125 146.117188 235.015625 145.734375 234.722656 145.351562 C 233.339844 143.5625 231.695312 141.421875 228.992188 139.425781 C 231.8125 142.710938 234.371094 146.4375 236.371094 150.546875 C 238.308594 154.597656 239.71875 159.058594 240.25 163.871094 L 240.808594 169.0625 L 237.867188 164.71875 C 236.988281 163.429688 234.839844 161.226562 232.285156 159.027344 C 234.546875 162.167969 235.015625 163.574219 235.105469 163.839844 C 235.105469 163.871094 238.015625 173.261719 231.902344 184.441406 L 230.636719 186.730469 L 229.578125 184.351562 C 229.109375 183.324219 228.816406 182.386719 228.550781 181.507812 C 228.257812 180.597656 227.992188 179.714844 227.492188 178.835938 C 227.375 180.097656 227.140625 181.332031 226.902344 182.5625 C 226.550781 184.351562 226.199219 186.144531 226.285156 188.050781 C 226.34375 189.636719 226.640625 191.160156 227.082031 192.570312 C 227.609375 194.273438 228.285156 195.710938 228.902344 196.621094 L 230.695312 199.289062 L 227.550781 198.585938 C 225.347656 198.085938 223.554688 197.117188 221.90625 195.652344 C 221.4375 195.238281 220.996094 194.800781 220.554688 194.332031 C 221.261719 200.757812 220.320312 210.148438 209.621094 217.894531 L 206.976562 219.800781 L 207.59375 216.605469 C 207.972656 214.636719 208.003906 213.257812 207.710938 211.820312 C 207.59375 211.203125 207.386719 210.558594 207.121094 209.855469 C 206.417969 211.496094 205.417969 213.023438 204.359375 214.636719 C 202.390625 217.660156 200.300781 220.859375 200.449219 224.792969 L 200.539062 226.699219 L 198.746094 226.054688 C 197.15625 225.464844 196.394531 223.617188 195.539062 221.476562 C 195.335938 220.976562 195.128906 220.476562 194.921875 219.976562 C 194.1875 223.910156 192.511719 226.113281 190.808594 228.371094 C 189.632812 229.925781 188.425781 231.511719 187.574219 233.800781 C 186.722656 231.511719 185.515625 229.925781 184.339844 228.371094 C 182.636719 226.113281 180.960938 223.910156 180.226562 219.976562 C 179.992188 220.476562 179.8125 220.976562 179.609375 221.476562 C 178.757812 223.617188 177.992188 225.464844 176.375 226.054688 L 174.582031 226.699219 L 174.671875 224.792969 C 174.816406 220.859375 172.730469 217.660156 170.761719 214.636719 C 169.730469 213.054688 168.703125 211.496094 167.996094 209.855469 C 167.734375 210.558594 167.527344 211.203125 167.410156 211.820312 C 167.117188 213.257812 167.144531 214.636719 167.527344 216.605469 L 168.144531 219.800781 L 165.5 217.894531 C 154.800781 210.117188 153.886719 200.757812 154.566406 194.332031 C 154.125 194.800781 153.683594 195.238281 153.210938 195.652344 C 151.566406 197.089844 149.800781 198.085938 147.570312 198.585938 L 144.421875 199.289062 L 146.214844 196.621094 C 146.832031 195.679688 147.511719 194.242188 148.039062 192.570312 C 148.449219 191.191406 148.773438 189.636719 148.832031 188.050781 C 148.890625 186.144531 148.566406 184.351562 148.214844 182.5625 C 147.980469 181.332031 147.746094 180.097656 147.628906 178.835938 C 147.128906 179.714844 146.863281 180.597656 146.570312 181.507812 C 146.304688 182.386719 146.011719 183.296875 145.539062 184.351562 L 144.480469 186.730469 L 143.246094 184.441406 C 137.132812 173.261719 140.042969 163.871094 140.042969 163.839844 C 140.132812 163.574219 140.601562 162.167969 142.867188 159.027344 C 140.277344 161.226562 138.132812 163.429688 137.28125 164.71875 L 134.339844 169.0625 L 134.898438 163.871094 C 135.429688 159.027344 136.808594 154.597656 138.75 150.546875 C 140.71875 146.4375 143.304688 142.710938 146.128906 139.425781 C 143.453125 141.421875 141.777344 143.5625 140.394531 145.351562 C 140.101562 145.734375 139.808594 146.117188 139.601562 146.378906 L 137.425781 149.109375 L 137.28125 145.617188 C 137.132812 141.65625 137.867188 138.925781 138.984375 136.546875 C 138.808594 136.695312 138.632812 136.84375 138.457031 137.019531 L 133.371094 141.714844 L 136.429688 135.492188 C 138.222656 131.824219 140.042969 128.773438 141.953125 126.25 C 143.746094 123.84375 145.628906 121.847656 147.628906 120.144531 C 147.773438 119.058594 147.980469 118.179688 148.128906 117.503906 L 148.304688 116.710938 L 149.097656 116.535156 C 150.417969 116.242188 151.800781 116.183594 153.152344 116.328125 C 153.625 116.066406 154.125 115.800781 154.625 115.539062 C 154.269531 115.539062 153.945312 115.539062 153.652344 115.539062 L 149.800781 115.539062 L 152.890625 113.21875 C 157.269531 109.902344 160.238281 108.316406 163.351562 107.703125 C 164.910156 107.410156 166.441406 107.351562 168.175781 107.4375 L 162.855469 104.296875 L 167.644531 104.328125 C 170.085938 104.355469 172.496094 104.414062 174.875 104.53125 C 177.34375 104.648438 179.753906 104.824219 182.105469 105.03125 L 182.519531 105.0625 Z M 201.949219 120.613281 C 201.976562 120.613281 204.210938 121.4375 207.621094 123.136719 C 208.53125 122.375 212.882812 118.910156 218.027344 117.210938 L 217.910156 117.152344 C 216.792969 116.621094 215.644531 116.152344 214.5 115.683594 L 208.914062 113.453125 L 214.910156 113.191406 L 217.585938 113.070312 C 215.144531 111.488281 213.207031 110.605469 211.296875 110.226562 C 208.589844 109.699219 205.710938 110.050781 201.273438 110.664062 L 194.921875 111.515625 L 202.566406 106.996094 C 201.832031 107.027344 201.097656 107.054688 200.359375 107.085938 C 198.1875 107.203125 195.921875 107.351562 193.628906 107.527344 L 187.574219 112.632812 L 181.519531 107.527344 C 179.226562 107.320312 176.992188 107.171875 174.789062 107.085938 C 174.054688 107.054688 173.316406 107.027344 172.582031 106.996094 L 180.226562 111.515625 L 173.875 110.664062 C 169.46875 110.078125 166.558594 109.699219 163.851562 110.226562 C 161.914062 110.605469 160.003906 111.457031 157.5625 113.070312 L 160.238281 113.191406 L 166.234375 113.453125 L 160.648438 115.683594 C 159.472656 116.152344 158.355469 116.621094 157.238281 117.152344 L 157.121094 117.210938 C 162.265625 118.910156 166.617188 122.375 167.527344 123.136719 C 170.9375 121.4375 173.199219 120.613281 173.199219 120.613281 C 170.964844 121.875 168.585938 123.371094 166.144531 125.105469 L 166 125.28125 L 165.96875 125.25 C 156.238281 132.117188 145.714844 142.125 141.101562 151.71875 C 140.425781 153.101562 139.835938 154.539062 139.339844 156.003906 C 141.570312 152.6875 144.601562 149.195312 147.570312 148.316406 C 146.335938 149.3125 143.570312 153.070312 141.277344 157.03125 L 141.453125 156.886719 C 143.835938 154.890625 146.511719 152.953125 148.980469 151.691406 L 155.0625 148.550781 L 150.539062 153.6875 C 143.101562 162.136719 142.542969 164.574219 142.542969 164.574219 L 142.542969 164.632812 C 142.542969 164.660156 141.101562 169.296875 142.660156 175.871094 C 143.6875 172.085938 145.65625 167.480469 148.15625 165.425781 C 148.15625 165.453125 145.597656 171.910156 145.21875 177.898438 C 145.746094 176.871094 146.539062 175.785156 147.832031 174.609375 C 148.421875 171.792969 150.039062 168.652344 153.710938 164.867188 C 155.652344 160.171875 158.03125 155.710938 159.796875 152.660156 C 159.648438 152.425781 159.503906 152.191406 159.355469 151.957031 C 157.179688 153.863281 153.476562 157.441406 152.007812 160.847656 C 151.332031 157.003906 154.503906 151.191406 157.003906 148.492188 C 155.917969 146.996094 154.742188 145.527344 153.535156 144.121094 C 152.125 144.441406 150.480469 145.234375 149.539062 147.023438 C 149.742188 143.738281 156.09375 137.222656 157.855469 136.605469 L 158.03125 136.429688 C 161.472656 133.203125 172.171875 128.097656 178.609375 127.335938 C 167.320312 131.472656 161.03125 137.253906 160.003906 138.164062 L 157.09375 144.441406 C 157.535156 145.03125 158.445312 146.261719 160.355469 148.785156 C 167.234375 146.410156 170.847656 149.34375 174.671875 152.425781 C 176.667969 154.039062 178.757812 155.710938 181.371094 156.445312 L 184.457031 157.296875 L 181.636719 158.820312 C 173.230469 163.398438 170.554688 174.816406 169.703125 181.769531 L 174.082031 181.390625 L 169.46875 184.148438 C 169.378906 185.203125 169.351562 186.027344 169.320312 186.613281 L 175.347656 183.707031 L 171.40625 188.667969 L 172.789062 189.839844 L 176.964844 185.996094 L 174.757812 191.511719 L 175.023438 191.71875 L 184.898438 188.34375 L 185.28125 184.351562 L 176.492188 177.28125 L 178.140625 174.550781 L 182.046875 166.363281 L 181.726562 172.847656 L 187.574219 174.523438 L 193.425781 172.847656 L 193.101562 166.363281 L 197.011719 174.550781 L 198.65625 177.28125 L 189.867188 184.351562 L 190.25 188.34375 L 200.125 191.71875 L 200.390625 191.511719 L 198.1875 185.996094 L 202.359375 189.839844 L 203.742188 188.667969 L 199.800781 183.707031 L 205.828125 186.613281 C 205.800781 186.027344 205.769531 185.203125 205.679688 184.148438 L 201.066406 181.390625 L 205.445312 181.769531 C 204.59375 174.816406 201.917969 163.398438 193.511719 158.820312 L 190.691406 157.296875 L 193.777344 156.445312 C 196.421875 155.710938 198.480469 154.039062 200.480469 152.425781 C 204.300781 149.34375 207.914062 146.410156 214.792969 148.785156 C 216.703125 146.261719 217.617188 145.03125 218.054688 144.441406 L 215.144531 138.164062 C 214.117188 137.253906 207.796875 131.472656 196.539062 127.335938 C 202.949219 128.097656 213.675781 133.234375 217.117188 136.429688 L 217.292969 136.609375 C 219.085938 137.222656 225.433594 143.738281 225.609375 147.023438 C 224.671875 145.234375 223.023438 144.441406 221.613281 144.121094 C 220.40625 145.527344 219.261719 146.996094 218.144531 148.492188 C 220.644531 151.191406 223.816406 157.003906 223.140625 160.847656 C 221.703125 157.441406 217.96875 153.863281 215.792969 151.957031 C 215.644531 152.191406 215.5 152.425781 215.351562 152.660156 C 217.085938 155.710938 219.496094 160.203125 221.4375 164.867188 C 225.109375 168.652344 226.726562 171.792969 227.316406 174.609375 C 228.609375 175.785156 229.375 176.839844 229.933594 177.898438 C 229.550781 171.910156 227.023438 165.453125 226.992188 165.425781 C 229.460938 167.480469 231.460938 172.085938 232.488281 175.871094 C 234.046875 169.296875 232.605469 164.660156 232.605469 164.632812 L 232.605469 164.574219 C 232.605469 164.574219 232.019531 162.109375 224.613281 153.6875 L 220.085938 148.550781 L 226.167969 151.691406 C 228.609375 152.953125 231.3125 154.890625 233.695312 156.886719 L 233.871094 157.03125 C 231.578125 153.070312 228.84375 149.34375 227.582031 148.316406 C 230.550781 149.167969 233.578125 152.6875 235.8125 156.003906 C 235.3125 154.539062 234.695312 153.101562 234.046875 151.71875 C 229.433594 142.125 218.910156 132.117188 209.179688 125.25 L 209.148438 125.28125 L 209.003906 125.105469 C 206.5625 123.402344 204.183594 121.875 201.949219 120.613281 Z M 187.574219 243.015625 L 191.21875 246.652344 L 187.574219 250.292969 L 183.929688 246.652344 Z M 195.070312 235.53125 L 198.714844 239.171875 L 195.070312 242.808594 L 191.425781 239.171875 Z M 187.574219 74.070312 C 187.839844 74.070312 188.105469 74.246094 188.191406 74.511719 L 192.21875 86.425781 L 199.449219 80.527344 C 199.714844 80.292969 200.125 80.351562 200.359375 80.617188 C 200.507812 80.792969 200.539062 81.027344 200.480469 81.230469 L 196.953125 92.414062 L 203.917969 90.476562 C 204.269531 90.386719 204.625 90.59375 204.710938 90.917969 C 204.769531 91.121094 204.710938 91.355469 204.59375 91.503906 L 198.597656 98.632812 C 198.480469 98.78125 198.273438 98.867188 198.097656 98.867188 L 177.109375 98.867188 C 176.933594 98.867188 176.726562 98.78125 176.609375 98.632812 L 170.613281 91.503906 C 170.46875 91.355469 170.4375 91.121094 170.496094 90.917969 C 170.585938 90.5625 170.9375 90.359375 171.289062 90.476562 L 178.257812 92.414062 L 174.730469 81.230469 C 174.671875 81.027344 174.699219 80.792969 174.847656 80.617188 C 175.082031 80.351562 175.492188 80.292969 175.757812 80.527344 L 182.988281 86.425781 L 187.015625 74.511719 C 187.105469 74.246094 187.367188 74.070312 187.632812 74.070312 Z M 187.574219 74.070312 " fill-opacity="1" fill-rule="evenodd"/></g><g clip-path="url(#id2)"><path fill="#00d8ff" d="M 213.984375 283.445312 C 213.707031 283.347656 213.417969 283.253906 213.117188 283.167969 C 213.167969 282.964844 213.210938 282.761719 213.25 282.5625 C 213.90625 279.3125 213.480469 276.691406 212.011719 275.828125 C 210.609375 275 208.308594 275.863281 205.988281 277.925781 C 205.765625 278.125 205.539062 278.335938 205.316406 278.554688 C 205.167969 278.410156 205.019531 278.269531 204.871094 278.132812 C 202.4375 275.929688 200 275 198.535156 275.863281 C 197.132812 276.695312 196.714844 279.15625 197.308594 282.238281 C 197.363281 282.539062 197.429688 282.84375 197.507812 283.152344 C 197.160156 283.25 196.828125 283.359375 196.507812 283.472656 C 193.65625 284.484375 191.835938 286.078125 191.835938 287.726562 C 191.835938 289.429688 193.792969 291.140625 196.761719 292.175781 C 196.996094 292.257812 197.238281 292.335938 197.488281 292.410156 C 197.410156 292.742188 197.339844 293.070312 197.277344 293.390625 C 196.714844 296.421875 197.15625 298.824219 198.554688 299.648438 C 200 300.5 202.429688 299.625 204.792969 297.515625 C 204.980469 297.351562 205.167969 297.171875 205.355469 296.988281 C 205.597656 297.226562 205.84375 297.453125 206.082031 297.664062 C 208.371094 299.675781 210.632812 300.488281 212.03125 299.664062 C 213.476562 298.808594 213.949219 296.222656 213.335938 293.082031 C 213.289062 292.839844 213.234375 292.597656 213.175781 292.347656 C 213.347656 292.296875 213.515625 292.242188 213.675781 292.1875 C 216.765625 291.140625 218.773438 289.453125 218.773438 287.726562 C 218.773438 286.070312 216.894531 284.46875 213.984375 283.445312 Z M 213.316406 291.070312 C 213.167969 291.121094 213.015625 291.167969 212.863281 291.214844 C 212.523438 290.113281 212.0625 288.941406 211.496094 287.730469 C 212.035156 286.550781 212.476562 285.394531 212.808594 284.300781 C 213.085938 284.382812 213.351562 284.46875 213.609375 284.558594 C 216.101562 285.433594 217.625 286.730469 217.625 287.726562 C 217.625 288.789062 215.980469 290.167969 213.316406 291.070312 Z M 212.207031 293.308594 C 212.480469 294.699219 212.515625 295.957031 212.335938 296.9375 C 212.175781 297.820312 211.855469 298.410156 211.457031 298.644531 C 210.605469 299.148438 208.792969 298.496094 206.835938 296.777344 C 206.609375 296.578125 206.382812 296.367188 206.15625 296.144531 C 206.914062 295.296875 207.671875 294.3125 208.414062 293.21875 C 209.714844 293.101562 210.945312 292.90625 212.0625 292.644531 C 212.117188 292.871094 212.164062 293.09375 212.207031 293.308594 Z M 201.019531 298.558594 C 200.191406 298.859375 199.53125 298.867188 199.132812 298.632812 C 198.28125 298.132812 197.929688 296.199219 198.410156 293.609375 C 198.464844 293.3125 198.53125 293.007812 198.605469 292.695312 C 199.710938 292.945312 200.929688 293.125 202.238281 293.234375 C 202.980469 294.304688 203.761719 295.289062 204.550781 296.148438 C 204.378906 296.320312 204.207031 296.480469 204.035156 296.632812 C 202.992188 297.566406 201.941406 298.226562 201.019531 298.558594 Z M 197.132812 291.066406 C 195.820312 290.605469 194.734375 290.011719 193.992188 289.359375 C 193.324219 288.777344 192.988281 288.199219 192.988281 287.726562 C 192.988281 286.726562 194.449219 285.449219 196.886719 284.582031 C 197.183594 284.476562 197.496094 284.375 197.816406 284.28125 C 198.152344 285.402344 198.59375 286.570312 199.128906 287.753906 C 198.589844 288.957031 198.140625 290.144531 197.800781 291.277344 C 197.570312 291.210938 197.347656 291.140625 197.132812 291.066406 Z M 198.4375 282.015625 C 197.929688 279.375 198.265625 277.382812 199.113281 276.882812 C 200.015625 276.347656 202.007812 277.109375 204.105469 279.011719 C 204.242188 279.132812 204.375 279.261719 204.511719 279.390625 C 203.730469 280.25 202.957031 281.226562 202.21875 282.292969 C 200.949219 282.410156 199.738281 282.605469 198.621094 282.863281 C 198.550781 282.574219 198.488281 282.289062 198.4375 282.015625 Z M 210.054688 284.941406 C 209.789062 284.472656 209.515625 284.015625 209.238281 283.566406 C 210.097656 283.679688 210.921875 283.828125 211.695312 284.007812 C 211.460938 284.765625 211.171875 285.558594 210.832031 286.375 C 210.585938 285.902344 210.328125 285.421875 210.054688 284.941406 Z M 205.316406 280.230469 C 205.847656 280.820312 206.378906 281.472656 206.902344 282.183594 C 206.375 282.160156 205.84375 282.148438 205.304688 282.148438 C 204.773438 282.148438 204.242188 282.160156 203.71875 282.183594 C 204.242188 281.480469 204.777344 280.824219 205.316406 280.230469 Z M 200.550781 284.953125 C 200.28125 285.421875 200.027344 285.898438 199.789062 286.375 C 199.453125 285.5625 199.167969 284.765625 198.933594 283.992188 C 199.703125 283.820312 200.519531 283.675781 201.375 283.566406 C 201.09375 284.015625 200.816406 284.480469 200.550781 284.953125 Z M 201.398438 291.972656 C 200.515625 291.871094 199.683594 291.734375 198.917969 291.5625 C 199.15625 290.78125 199.449219 289.964844 199.789062 289.136719 C 200.03125 289.613281 200.285156 290.085938 200.554688 290.558594 C 200.828125 291.039062 201.109375 291.511719 201.398438 291.972656 Z M 205.347656 295.304688 C 204.804688 294.703125 204.261719 294.039062 203.730469 293.324219 C 204.246094 293.34375 204.769531 293.355469 205.304688 293.355469 C 205.855469 293.355469 206.398438 293.34375 206.929688 293.320312 C 206.40625 294.046875 205.875 294.710938 205.347656 295.304688 Z M 210.84375 289.09375 C 211.203125 289.933594 211.507812 290.742188 211.746094 291.511719 C 210.964844 291.695312 210.121094 291.839844 209.234375 291.949219 C 209.515625 291.5 209.789062 291.03125 210.0625 290.550781 C 210.335938 290.066406 210.597656 289.578125 210.84375 289.09375 Z M 209.0625 289.964844 C 208.644531 290.710938 208.210938 291.421875 207.773438 292.09375 C 206.972656 292.148438 206.148438 292.179688 205.304688 292.179688 C 204.464844 292.179688 203.652344 292.15625 202.867188 292.101562 C 202.410156 291.421875 201.96875 290.707031 201.550781 289.972656 C 201.132812 289.234375 200.75 288.492188 200.398438 287.753906 C 200.75 287.015625 201.132812 286.273438 201.546875 285.539062 C 201.960938 284.800781 202.398438 284.09375 202.851562 283.414062 C 203.652344 283.355469 204.476562 283.320312 205.304688 283.320312 C 206.140625 283.320312 206.960938 283.355469 207.761719 283.417969 C 208.207031 284.085938 208.644531 284.796875 209.0625 285.53125 C 209.484375 286.277344 209.871094 287.015625 210.222656 287.738281 C 209.871094 288.472656 209.484375 289.21875 209.0625 289.964844 Z M 211.4375 276.847656 C 212.339844 277.378906 212.691406 279.519531 212.125 282.328125 C 212.089844 282.507812 212.046875 282.6875 212.003906 282.875 C 210.886719 282.609375 209.671875 282.414062 208.402344 282.292969 C 207.660156 281.214844 206.894531 280.238281 206.125 279.390625 C 206.332031 279.1875 206.539062 278.996094 206.742188 278.8125 C 208.734375 277.046875 210.59375 276.347656 211.4375 276.847656 Z M 205.304688 285.269531 C 206.632812 285.269531 207.710938 286.371094 207.710938 287.726562 C 207.710938 289.082031 206.632812 290.183594 205.304688 290.183594 C 203.976562 290.183594 202.898438 289.082031 202.898438 287.726562 C 202.898438 286.371094 203.976562 285.269531 205.304688 285.269531 Z M 205.304688 285.269531 " fill-opacity="1" fill-rule="nonzero"/></g><g fill="#c89a40" fill-opacity="1"><g transform="translate(168.173197, 271.293556)"><g><path d="M 12.921875 -18.46875 L 13.4375 -17.515625 L 13.3125 -1.296875 L 11.84375 -0.015625 L 1.65625 -0.234375 L 0.46875 -1.984375 L 0.6875 -6.046875 L 4.75 -6.109375 L 5.078125 -3.71875 L 8.46875 -3.953125 L 8.71875 -14.078125 L 5.5625 -14.015625 L 4.734375 -15.046875 L 4.734375 -18.34375 Z M 12.921875 -18.46875 "/></g></g></g><g fill="#c89a40" fill-opacity="1"><g transform="translate(193.074312, 271.293556)"><g><path d="M 12.09375 -9.140625 L 13.296875 -7.84375 L 13.171875 -1.515625 L 11.515625 -0.234375 L 0.46875 0.046875 L 0.625 -18.375 L 11.125 -17.84375 L 12.46875 -16.125 L 12.734375 -9.953125 Z M 8.3125 -10.921875 L 8.171875 -14.328125 L 5.046875 -14.8125 L 5.125 -11.375 Z M 8.8125 -7.484375 L 5.171875 -8.078125 L 5.140625 -3.71875 L 8.65625 -4.265625 Z M 8.8125 -7.484375 "/></g></g></g><g fill="#c89a40" fill-opacity="1"><g transform="translate(108.634791, 296.38079)"><g><path d="M 7.125 -10.578125 L 8.1875 -9.171875 L 7.953125 -1.421875 L 6.859375 -0.140625 L 0.28125 0.015625 L 0.359375 -11.140625 Z M 3.21875 -8.4375 L 3.328125 -2.25 L 5.265625 -2.6875 L 5.359375 -7.828125 Z M 3.21875 -8.4375 "/></g></g></g><g fill="#c89a40" fill-opacity="1"><g transform="translate(128.228746, 296.38079)"><g><path d="M 6.859375 -2.515625 L 7.015625 -0.03125 L 0.28125 -0.03125 L 0.28125 -11.171875 L 6.796875 -10.953125 L 6.703125 -8.40625 L 3.125 -8.453125 L 3.125 -7.0625 L 5.4375 -6.921875 L 5.4375 -4.5 L 3.125 -4.640625 L 3.109375 -2.734375 Z M 6.859375 -2.515625 "/></g></g></g><g fill="#c89a40" fill-opacity="1"><g transform="translate(146.654248, 296.38079)"><g><path d="M 6.421875 -11.09375 L 9.4375 -10.515625 L 7.21875 -0.609375 L 6.578125 -0.0625 L 3.25 0.03125 L 2.671875 -0.53125 L 0.28125 -10.71875 L 3.421875 -11.140625 L 4.953125 -3.25 Z M 6.421875 -11.09375 "/></g></g></g><g fill="#c89a40" fill-opacity="1"><g transform="translate(167.500106, 296.38079)"><g><path d="M 6.859375 -2.515625 L 7.015625 -0.03125 L 0.28125 -0.03125 L 0.28125 -11.171875 L 6.796875 -10.953125 L 6.703125 -8.40625 L 3.125 -8.453125 L 3.125 -7.0625 L 5.4375 -6.921875 L 5.4375 -4.5 L 3.125 -4.640625 L 3.109375 -2.734375 Z M 6.859375 -2.515625 "/></g></g></g><g fill="#c89a40" fill-opacity="1"><g transform="translate(185.925607, 296.38079)"><g><path d="M 7.03125 -2.625 L 7.34375 0.015625 L 0.28125 0.015625 L 0.375 -11.171875 L 3.359375 -10.984375 L 3.203125 -2.671875 Z M 7.03125 -2.625 "/></g></g></g><g fill="#c89a40" fill-opacity="1"><g transform="translate(204.684944, 296.38079)"><g/></g></g><g fill="#c89a40" fill-opacity="1"><g transform="translate(219.994575, 296.38079)"><g><path d="M 8.109375 -10.140625 L 8.125 -3.578125 L 7.546875 -2.890625 L 3.234375 -2.75 L 3.109375 -0.1875 L 0.28125 0.046875 L 0.28125 -11.09375 L 7.578125 -10.671875 Z M 5.203125 -8.484375 L 3.375 -8.65625 L 3.296875 -5.265625 L 5.1875 -5.40625 Z M 5.203125 -8.484375 "/></g></g></g><g fill="#c89a40" fill-opacity="1"><g transform="translate(239.532888, 296.38079)"><g><path d="M 6.859375 -2.515625 L 7.015625 -0.03125 L 0.28125 -0.03125 L 0.28125 -11.171875 L 6.796875 -10.953125 L 6.703125 -8.40625 L 3.125 -8.453125 L 3.125 -7.0625 L 5.4375 -6.921875 L 5.4375 -4.5 L 3.125 -4.640625 L 3.109375 -2.734375 Z M 6.859375 -2.515625 "/></g></g></g><g fill="#c89a40" fill-opacity="1"><g transform="translate(257.95839, 296.38079)"><g><path d="M 7.59375 -3.109375 L 6.859375 -3.015625 L 7.84375 -1.03125 L 7.59375 -0.5625 L 5.453125 0 L 3.90625 -2.828125 L 3.234375 -2.796875 L 3.109375 -0.28125 L 0.28125 -0.046875 L 0.28125 -11.171875 L 7.578125 -10.71875 L 8.109375 -10.171875 L 8.125 -4.03125 Z M 5.1875 -5.4375 L 5.203125 -8.5625 L 3.375 -8.75 L 3.296875 -5.296875 Z M 5.1875 -5.4375 "/></g></g></g></svg>